<svg width="33" height="30" viewBox="0 0 33 30" fill="none" xmlns="http://www.w3.org/2000/svg"><path d="M10.689 0C4.786 0 0 4.786 0 10.689c0 5.902 4.786 10.688 10.689 10.688q.6-.002 1.113-.062V.072A8 8 0 0 0 10.688 0" fill="#fff"/><path d="M20.478 8.93A8.805 8.805 0 0 1 11.673.126V.11h9.749v8.755q-.434.063-.945.065" fill="#fff"/><path d="M22.312 29.836C28.214 29.836 33 25.05 33 19.148S28.215 8.459 22.311 8.459q-.6.002-1.113.062v21.243a8 8 0 0 0 1.113.072" fill="#fff"/><path d="M12.522 20.93a8.805 8.805 0 0 1 8.805 8.8h-9.75v-8.736q.434-.063.945-.064" fill="#fff"/></svg>